<svg width="100" height="100" viewBox="0 0 100 100" fill="none" xmlns="http://www.w3.org/2000/svg">
<mask id="mask0_9142_13785" style="mask-type:alpha" maskUnits="userSpaceOnUse" x="0" y="0" width="100" height="100">
<rect width="100" height="100" rx="16" fill="white"/>
</mask>
<g mask="url(#mask0_9142_13785)">
<path d="M87.6187 42.19L87.5093 41.9103L76.9157 14.2633C76.7002 13.7214 76.3185 13.2617 75.8256 12.9502C75.3323 12.644 74.7569 12.4965 74.1771 12.5277C73.5973 12.5588 73.0411 12.7672 72.5835 13.1245C72.1309 13.4921 71.8026 13.9902 71.6432 14.551L64.4903 36.4352H35.5262L28.3733 14.551C28.2182 13.9871 27.8892 13.4865 27.4331 13.1204C26.9755 12.7631 26.4192 12.5548 25.8394 12.5236C25.2597 12.4925 24.6843 12.6399 24.191 12.9462C23.6991 13.2589 23.3178 13.7182 23.1008 14.2592L12.487 41.8941L12.3816 42.1738C10.8566 46.1583 10.6684 50.5307 11.8453 54.6316C13.0222 58.7325 15.5004 62.3396 18.9064 64.909L18.9428 64.9374L19.0401 65.0063L35.1777 77.0912L43.1614 83.1337L48.0245 86.8054C48.5934 87.2373 49.288 87.4711 50.0022 87.4711C50.7164 87.4711 51.411 87.2373 51.9799 86.8054L56.843 83.1337L64.8267 77.0912L81.0616 64.9333L81.1021 64.9009C84.5004 62.331 86.9728 58.7276 88.148 54.6322C89.3231 50.5369 89.1373 46.1707 87.6187 42.19Z" fill="#E24329"/>
<path d="M87.6206 42.1898L87.5112 41.9102C82.3493 42.9697 77.4851 45.1561 73.2662 48.3133L50 65.9058C57.9229 71.8996 64.8205 77.1073 64.8205 77.1073L81.0553 64.9494L81.0958 64.9169C84.499 62.3471 86.9753 58.7414 88.152 54.6425C89.3288 50.5437 89.1423 46.1735 87.6206 42.1898Z" fill="#FC6D26"/>
<path d="M35.1758 77.1077L43.1595 83.1502L48.0226 86.8219C48.5915 87.2538 49.2861 87.4876 50.0003 87.4876C50.7145 87.4876 51.4091 87.2538 51.978 86.8219L56.8412 83.1502L64.8248 77.1077C64.8248 77.1077 57.9192 71.8839 49.9963 65.9062C42.0734 71.8839 35.1758 77.1077 35.1758 77.1077Z" fill="#FCA326"/>
<path d="M26.7279 48.3139C22.5124 45.1502 17.6492 42.9581 12.487 41.8945L12.3816 42.1742C10.8566 46.1587 10.6684 50.5311 11.8453 54.632C13.0222 58.7329 15.5004 62.34 18.9064 64.9094L18.9428 64.9378L19.0401 65.0067L35.1777 77.0916C35.1777 77.0916 42.0671 71.884 49.9981 65.8902L26.7279 48.3139Z" fill="#FC6D26"/>
</g>
</svg>
